<?xml version="1.0" encoding="UTF-8" standalone="no"?>
<svg width="1567px" height="1567px" viewBox="0 0 1567 1567" version="1.1" xmlns="http://www.w3.org/2000/svg" xmlns:xlink="http://www.w3.org/1999/xlink">
    <g stroke="none" fill="#444444" fill-rule="evenodd">
        <path d="M551.536,256.5836 L551.536,711.8336 L551.266,711.8336 L551.266,717.2126 L418.235,717.2126 L418.235,848.2656 L551.266,848.2656 L551.266,982.9116 L551.286,982.9116 C551.286,983.4626 551.266,984.0086 551.266,984.5606 L551.266,1035.4786 C551.266,1186.5686 670.578,1308.2066 818.782,1308.2066 L880.122,1308.2066 C880.663,1308.2066 881.2,1308.1866 881.741,1308.1866 L881.741,1308.2066 L1147.639,1308.2066 L1147.639,1037.1266 L1147.619,1037.1266 C1147.619,1036.5766 1147.639,1036.0296 1147.639,1035.4786 L1147.639,984.5606 C1147.639,833.4696 1028.326,711.8336 880.122,711.8336 L818.782,711.8336 C818.241,711.8336 817.705,711.8536 817.165,711.8536 L817.165,711.8336 L688.393,711.8336 L688.393,256.5836 L551.536,256.5836 L551.536,256.5836 Z M688.889,849.4566 L822.647,849.4566 L832.067,849.4566 L876.256,849.4566 C950.358,849.4566 1010.014,910.2766 1010.014,985.8216 L1010.014,1024.6166 L1010.014,1034.2186 L1010.014,1170.5816 L876.256,1170.5816 L866.836,1170.5816 L822.647,1170.5816 C748.545,1170.5816 688.889,1109.7636 688.889,1034.2186 L688.889,995.4236 L688.889,985.8216 L688.889,849.4566 L688.889,849.4566 Z M250.612,0.0704 L1315.262,0.0704 C1453.762,0.0704 1565.262,111.5704 1565.262,250.0704 L1565.262,1314.7196 C1565.262,1453.2196 1453.762,1564.7196 1315.262,1564.7196 L250.612,1564.7196 C112.112,1564.7196 0.612,1453.2196 0.612,1314.7196 L0.612,250.0704 C0.612,111.5704 112.112,0.0704 250.612,0.0704 L250.612,0.0704 Z" id="path8072"></path>
    </g>
</svg>