<?xml version="1.0" encoding="UTF-8" standalone="no"?>
<svg width="79px" height="94px" viewBox="0 0 79 94" version="1.1" xmlns="http://www.w3.org/2000/svg" xmlns:xlink="http://www.w3.org/1999/xlink">
    <!-- Generator: Sketch 41.2 (35397) - http://www.bohemiancoding.com/sketch -->
    <title>Group 2 Copy 2</title>
    <desc>Created with Sketch.</desc>
    <defs></defs>
    <g id="Page-1" stroke="none" stroke-width="1" fill="none" fill-rule="evenodd">
        <g id="Artboard-12" transform="translate(-969.000000, -49.000000)">
            <g id="Group-5-Copy" transform="translate(935.000000, 23.000000)">
                <g id="Group-4-Copy-2" transform="translate(76.715024, 75.036312) rotate(145.000000) translate(-76.715024, -75.036312) translate(19.715024, 23.536312)">
                    <g id="Group-2-Copy-2" transform="translate(0.000000, 0.000000)">
                        <g id="Group-2-Copy-13" transform="translate(56.984339, 51.150724) rotate(265.000000) translate(-56.984339, -51.150724) translate(10.484339, -1.349276)">
                            <polygon id="Triangle-Copy-5" stroke="#3D75FB" stroke-width="1.83999991" fill="#FFFFFF" transform="translate(76.340201, 77.127621) rotate(-37.000000) translate(-76.340201, -77.127621) " points="73.8861947 72.3406428 81.3595411 78.4682102 71.3208607 81.9145998"></polygon>
                            <polygon id="Triangle-Copy-4" fill="#55C1C4" transform="translate(4.365101, 29.994167) rotate(1.000000) translate(-4.365101, -29.994167) " points="4.36510147 26.2878563 8.0714123 33.7004779 0.658790639 33.7004779"></polygon>
                            <polygon id="Triangle-Copy-14" fill="#55C1C4" transform="translate(86.131203, 59.998126) rotate(1.000000) translate(-86.131203, -59.998126) " points="86.131203 53.498126 92.631203 66.498126 79.631203 66.498126"></polygon>
                            <polygon id="Triangle-Copy" fill="#F74768" transform="translate(12.025108, 45.431164) rotate(35.000000) translate(-12.025108, -45.431164) " points="12.0251081 39.9311637 17.5251081 50.9311637 6.52510811 50.9311637"></polygon>
                            <polygon id="Triangle-Copy-10" fill="#F74768" transform="translate(28.934829, 86.848299) rotate(-39.000000) translate(-28.934829, -86.848299) " points="28.9348294 82.8482989 32.9348294 90.8482989 24.9348294 90.8482989"></polygon>
                            <polygon id="Triangle-Copy-8" fill="#F17130" points="50.5 9 55 18 46 18"></polygon>
                            <polygon id="Triangle-Copy-2" fill="#3D75FB" transform="translate(18.641928, 24.352239) rotate(-48.000000) translate(-18.641928, -24.352239) " points="18.641928 20.3573187 22.6368484 28.3471596 14.6470075 28.3471596"></polygon>
                            <polygon id="Triangle-Copy-12" fill="#EEF0F3" transform="translate(17.667036, 64.641928) rotate(-48.000000) translate(-17.667036, -64.641928) " points="17.6670361 60.6470075 21.6619565 68.6368484 13.6721157 68.6368484"></polygon>
                            <polygon id="Triangle-Copy-3" fill="#3D75FB" transform="translate(55.000000, 98.254475) rotate(93.000000) translate(-55.000000, -98.254475) " points="55 92.7544745 60.5 103.754475 49.5 103.754475"></polygon>
                            <polygon id="Triangle-Copy-11" fill="#EEF0F3" transform="translate(64.973592, 86.452025) rotate(44.000000) translate(-64.973592, -86.452025) " points="64.9735916 80.952025 70.4735916 91.952025 59.4735916 91.952025"></polygon>
                            <polygon id="Triangle-Copy-13" fill="#EEF0F3" transform="translate(25.327043, 6.981552) rotate(6.000000) translate(-25.327043, -6.981552) " points="25.3270427 1.48155227 30.8270427 12.4815523 19.8270427 12.4815523"></polygon>
                        </g>
                        <g id="Group-3-Copy" transform="translate(60.162004, 53.045530) rotate(216.000000) translate(-60.162004, -53.045530) translate(40.162004, 16.045530)" font-family="FontAwesome" font-weight="normal">
                            <text id="" font-size="70" fill="#3D75FB">
                                <tspan x="-2.13162821e-13" y="63"></tspan>
                            </text>
                            <text id="" font-size="73.1808" fill="#B2C8FD">
                                <tspan x="4.06980963" y="63.9993908"></tspan>
                            </text>
                        </g>
                    </g>
                </g>
            </g>
        </g>
    </g>
</svg>