<?xml version="1.0" encoding="UTF-8" standalone="no"?>
<svg width="320px" height="320px" viewBox="0 0 320 320" version="1.1" xmlns="http://www.w3.org/2000/svg" xmlns:xlink="http://www.w3.org/1999/xlink">
    <defs></defs>
    <g id="Page-1" stroke="none" stroke-width="1" fill="none" fill-rule="evenodd">
        <path d="M0,0 L0,136.3 L56.3,136.3 L56.3,0 L0,0 Z M83.8,0 L83.8,136.3 L120,136.3 C155,136.3 183.8,164.9 183.8,200 L183.8,263.8 L120,263.8 C85,263.8 56.2,235 56.2,200 L56.2,163.7 L0,163.7 L0,202.5 C0,267.5 52.4,320 117.5,320 L320,320 L320,117.5 C320,52.5 267.6,0 202.5,0 L83.8,0 Z M83.8,163.8 L83.8,200 C83.8,220 99.8,236.3 120,236.3 L156.3,236.3 L156.3,200 C156.3,180 140,163.7 120,163.7 L83.8,163.8 Z" id="Shape" fill="#ffffff"></path>
    </g>
</svg>