<svg width="144" height="29" xmlns="http://www.w3.org/2000/svg">
  <path d="M22.6 28h-7.8l-5-10.2H8V28H1V.7h10.8c3 0 5.2 1 7 2.7C20.2 5 21 7 21 9.4c0 3.3-1.4 5.7-4.3 7.2l6 11.4zM14.4 9.5c0-.8-.3-1.4-.8-2-.6-.5-1.3-.8-2-.8h-4v5.5h4c.7 0 1.4-.3 2-.8.5-.6.8-1.2.8-2zm34 4.8c0 2.8-.2 4.8-.4 6-.3 2-1.2 3.6-2.4 5-2 2-4.6 3-7.7 3-3 0-6-1-8-3-1.3-1.4-2-3-2.5-5-.2-1.2-.3-3.2-.3-6s0-4.7.3-5.8c.4-2 1.2-3.7 2.5-5 2-2 4.7-3 7.7-3s5.5 1 7.6 3c1.2 1.3 2 3 2.4 5 .2 1 .3 3 .3 5.8zm-6.8 0c0-3.6-.3-5.8-1-6.7C40 6.8 39 6.4 38 6.4c-1.3 0-2.2.4-2.8 1.2-.6 1-1 3-1 6.7 0 3.6.3 5.8 1 6.7.6.8 1.5 1.2 2.7 1.2 1 0 2-.4 2.3-1.2.7-1 1-3 1-6.7zm33.7 0c0 2.8 0 4.8-.3 6-.4 2-1.2 3.6-2.5 5-2 2-4.6 3-7.6 3-3.5 0-6-1-8-3-1-1.4-2-3-2.5-5-.2-1.2-.3-3.2-.3-6s0-4.7.3-5.8c.3-2 1.2-3.7 2.4-5 2-2 4.6-3 7.7-3 3 0 5.5 1 7.5 3 1.3 1.3 2 3 2.5 5 .2 1 .3 3 .3 5.8zm-6.7 0c0-3.6-.4-5.8-1-6.7C67 6.8 66 6.4 65 6.4c-1.3 0-2.2.4-2.8 1.2-.7 1-1 3-1 6.7 0 3.6.3 5.8 1 6.7.6.8 1.5 1.2 2.7 1.2 1 0 2-.4 2.3-1.2.7-1 1-3 1-6.7zM105.4 28h-7.8l-6.3-11.2-2.3 2.6V28h-6.7V.7H89v9.6l8-9.6h8l-9.2 11 9.6 16.3zm12 0h-6.8V.7h6.7V28zm26.4 0h-18.6V.7h18.6v6H132V11h10v6h-10v5h11.8v6z" fill="#bbb" fill-rule="evenodd"/>
</svg>
