<?xml version="1.0" encoding="UTF-8" standalone="no"?>
<svg width="144px" height="29px" viewBox="0 0 144 29" version="1.1" xmlns="http://www.w3.org/2000/svg" xmlns:xlink="http://www.w3.org/1999/xlink">
    <!-- Generator: Sketch 40.3 (33839) - http://www.bohemiancoding.com/sketch -->
    <title>ROOKIE Copy</title>
    <desc>Created with Sketch.</desc>
    <defs></defs>
    <g id="Landing-Pages" stroke="none" stroke-width="1" fill="none" fill-rule="evenodd">
        <g id="Landing-Page-Copy-2" transform="translate(-61.000000, -25.000000)" fill="#232B69">
            <path d="M83.5696,53 L75.7744,53 L70.936,42.824 L68.6704,42.824 L68.6704,53 L61.9504,53 L61.9504,25.6592 L72.7792,25.6592 C75.6720145,25.6592 77.9887913,26.5679909 79.7296,28.3856 C81.3168079,30.0240082 82.1104,32.046388 82.1104,34.4528 C82.1104,37.7296164 80.6256148,40.1103926 77.656,41.5952 L83.5696,53 Z M75.3904,34.4528 C75.3904,33.7103963 75.1216027,33.0640028 74.584,32.5136 C74.0463973,31.9631972 73.3424044,31.688 72.472,31.688 L68.6704,31.688 L68.6704,37.2176 L72.472,37.2176 C73.3424044,37.2176 74.0463973,36.9424028 74.584,36.392 C75.1216027,35.8415972 75.3904,35.1952037 75.3904,34.4528 L75.3904,34.4528 Z M109.3168,39.3296 C109.3168,42.120014 109.214401,44.0783944 109.0096,45.2048 C108.651198,47.2272101 107.832006,48.8783936 106.552,50.1584 C104.50399,52.2064102 101.956815,53.2304 98.9104,53.2304 C95.8639848,53.2304 93.3168102,52.2064102 91.2688,50.1584 C89.9887936,48.8783936 89.1696018,47.2272101 88.8112,45.2048 C88.606399,44.0783944 88.504,42.120014 88.504,39.3296 C88.504,36.539186 88.606399,34.5808056 88.8112,33.4544 C89.1696018,31.4319899 89.9887936,29.7808064 91.2688,28.5008 C93.3168102,26.4527898 95.8639848,25.4288 98.9104,25.4288 C101.956815,25.4288 104.50399,26.4527898 106.552,28.5008 C107.832006,29.7808064 108.651198,31.4319899 109.0096,33.4544 C109.214401,34.5808056 109.3168,36.539186 109.3168,39.3296 L109.3168,39.3296 Z M102.5968,39.3296 C102.5968,35.719982 102.264003,33.4800044 101.5984,32.6096 C100.983997,31.815996 100.088006,31.4192 98.9104,31.4192 C97.7327941,31.4192 96.8368031,31.815996 96.2224,32.6096 C95.5567967,33.4800044 95.224,35.719982 95.224,39.3296 C95.224,42.9136179 95.5439968,45.1279958 96.184,45.9728 C96.8240032,46.8176042 97.7327941,47.24 98.9104,47.24 C100.088006,47.24 100.996797,46.8176042 101.6368,45.9728 C102.276803,45.1279958 102.5968,42.9136179 102.5968,39.3296 L102.5968,39.3296 Z M136.2928,39.3296 C136.2928,42.120014 136.190401,44.0783944 135.9856,45.2048 C135.627198,47.2272101 134.808006,48.8783936 133.528,50.1584 C131.47999,52.2064102 128.932815,53.2304 125.8864,53.2304 C122.839985,53.2304 120.29281,52.2064102 118.2448,50.1584 C116.964794,48.8783936 116.145602,47.2272101 115.7872,45.2048 C115.582399,44.0783944 115.48,42.120014 115.48,39.3296 C115.48,36.539186 115.582399,34.5808056 115.7872,33.4544 C116.145602,31.4319899 116.964794,29.7808064 118.2448,28.5008 C120.29281,26.4527898 122.839985,25.4288 125.8864,25.4288 C128.932815,25.4288 131.47999,26.4527898 133.528,28.5008 C134.808006,29.7808064 135.627198,31.4319899 135.9856,33.4544 C136.190401,34.5808056 136.2928,36.539186 136.2928,39.3296 L136.2928,39.3296 Z M129.5728,39.3296 C129.5728,35.719982 129.240003,33.4800044 128.5744,32.6096 C127.959997,31.815996 127.064006,31.4192 125.8864,31.4192 C124.708794,31.4192 123.812803,31.815996 123.1984,32.6096 C122.532797,33.4800044 122.2,35.719982 122.2,39.3296 C122.2,42.9136179 122.519997,45.1279958 123.16,45.9728 C123.800003,46.8176042 124.708794,47.24 125.8864,47.24 C127.064006,47.24 127.972797,46.8176042 128.6128,45.9728 C129.252803,45.1279958 129.5728,42.9136179 129.5728,39.3296 L129.5728,39.3296 Z M166.4176,53 L158.584,53 L152.2864,41.7872 L149.9824,44.4368 L149.9824,53 L143.3392,53 L143.3392,25.6592 L149.9824,25.6592 L149.9824,35.336 L157.8928,25.6592 L166.1104,25.6592 L156.7792,36.7184 L166.4176,53 Z M178.3024,53 L171.5824,53 L171.5824,25.6592 L178.3024,25.6592 L178.3024,53 Z M204.8176,53 L186.232,53 L186.232,25.6592 L204.8176,25.6592 L204.8176,31.6496 L192.952,31.6496 L192.952,36.2192 L203.0896,36.2192 L203.0896,42.2096 L192.952,42.2096 L192.952,47.0096 L204.8176,47.0096 L204.8176,53 Z" id="ROOKIE-Copy"></path>
        </g>
    </g>
</svg>