<?xml version="1.0" encoding="UTF-8" standalone="no"?>
<svg width="238px" height="76px" viewBox="0 0 238 76" version="1.1" xmlns="http://www.w3.org/2000/svg" xmlns:xlink="http://www.w3.org/1999/xlink">
    <!-- Generator: Sketch 43.1 (39012) - http://www.bohemiancoding.com/sketch -->
    <title>Artboard 5</title>
    <desc>Created with Sketch.</desc>
    <defs></defs>
    <g id="Page-1" stroke="none" stroke-width="1" fill="none" fill-rule="evenodd">
        <g id="Artboard-5">
            <g id="Logo-Copy-2">
                <rect id="Rectangle-5" fill="#F1E8D0" x="0" y="0" width="237.675333" height="76" rx="8"></rect>
                <path d="M55.6918016,26.2386304 C55.5345144,27.870485 55.4460417,29.8070544 55.4263808,32.0483968 C56.0555295,31.2226391 56.6944992,30.6426513 57.3433088,30.308416 C57.9921184,29.9741807 58.8080335,29.8070656 59.7910784,29.8070656 C61.7571682,29.8070656 63.3201862,30.4951867 64.4801792,31.8714496 C65.6401722,33.2477125 66.22016,35.0761486 66.22016,37.3568128 C66.22016,39.8537469 65.6057661,41.844383 64.37696,43.3287808 C63.1481539,44.8131786 61.491748,45.5553664 59.4076928,45.5553664 C57.3826203,45.5553664 55.9179053,44.7984332 55.013504,43.284544 C55.0921476,43.8547101 55.1314688,44.1692797 55.1314688,44.2282624 C55.1314688,44.9360547 54.7874082,45.2899456 54.0992768,45.2899456 C53.4111454,45.2899456 53.0670848,44.7984305 53.0670848,43.8153856 C53.0670848,43.540133 53.0769151,43.3336967 53.096576,43.1960704 C53.096576,42.7438697 53.1064063,42.262185 53.1260672,41.7510016 L53.2145408,39.4801792 L53.2735232,36.501568 L53.2145408,28.6274176 C53.1948799,27.8999644 53.1211526,27.4084493 52.9933568,27.1528576 C52.865561,26.8972659 52.6443792,26.769472 52.3298048,26.769472 C52.2708221,26.769472 52.0152343,26.8087932 51.5630336,26.8874368 C51.3467637,26.9267586 51.159988,26.9464192 51.0027008,26.9464192 C50.3342303,26.9464192 50,26.6318495 50,26.0027008 C50,25.3538912 50.3932121,25.0294912 51.179648,25.0294912 C51.4155788,25.0294912 51.6121848,25.0393215 51.769472,25.0589824 L52.4772608,25.147456 C52.7918352,25.1867778 53.047423,25.2064384 53.244032,25.2064384 C53.4603019,25.2064384 53.7650412,25.1720323 54.1582592,25.1032192 C54.5514772,25.0344061 54.8463862,25 55.0429952,25 C55.475535,25 55.6918016,25.2752484 55.6918016,25.8257536 L55.6918016,26.2386304 Z M55.6623104,34.7910784 C55.5246841,35.4202271 55.455872,36.3049543 55.455872,37.4452864 C55.455872,39.3917153 55.6131568,40.7286364 55.9277312,41.4560896 C56.537219,42.8913352 57.6971946,43.6089472 59.4076928,43.6089472 C60.7642948,43.6089472 61.8407128,43.0731958 62.6369792,42.0016768 C63.4332456,40.9301578 63.8313728,39.4900186 63.8313728,37.681216 C63.8313728,35.8330916 63.4529062,34.3831221 62.6959616,33.331264 C61.939017,32.2794059 60.9019202,31.7534848 59.58464,31.7534848 C58.6605778,31.7534848 57.8250021,32.0434787 57.077888,32.6234752 C56.3307739,33.2034717 55.8589194,33.9259989 55.6623104,34.7910784 Z M75.7939584,45.5553664 C73.7295641,45.5553664 72.0780734,44.8426695 70.8394368,43.4172544 C69.6008002,41.9918393 68.9814912,40.0798456 68.9814912,37.681216 C68.9814912,35.2825864 69.6057153,33.3705927 70.8541824,31.9451776 C72.1026494,30.5197625 73.7787159,29.8070656 75.882432,29.8070656 C78.0254699,29.8070656 79.7162818,30.505017 80.9549184,31.9009408 C82.193555,33.2968646 82.812864,35.1941128 82.812864,37.5927424 C82.812864,39.991372 82.1738944,41.9181111 80.895936,43.3730176 C79.6179776,44.8279241 77.9173354,45.5553664 75.7939584,45.5553664 Z M75.9414144,31.7534848 C74.5651515,31.7534848 73.4838183,32.2351696 72.6973824,33.1985536 C71.9109464,34.1619376 71.4784132,35.5283496 71.3997696,37.2978304 L71.3997696,37.681216 C71.3997696,39.5293404 71.7880665,40.9793099 72.564672,42.031168 C73.3412775,43.0830261 74.4275258,43.6089472 75.8234496,43.6089472 C77.2586952,43.6089472 78.3842647,43.0830261 79.200192,42.031168 C80.0161193,40.9793099 80.4240768,39.5195101 80.4240768,37.6517248 C80.4240768,33.7195451 78.9298709,31.7534848 75.9414144,31.7534848 Z M92.2392064,29.8070656 C94.1856353,29.8070656 95.6405199,30.5639988 96.603904,32.077888 L96.603904,29.0992768 C96.603904,28.3128409 96.5842434,27.8311561 96.5449216,27.654208 C96.4466171,27.0447202 96.1713686,26.7399808 95.719168,26.7399808 C95.5618808,26.7399808 95.340699,26.7694717 95.055616,26.8284544 C94.7705329,26.8874371 94.5493511,26.916928 94.392064,26.916928 C93.6646107,26.916928 93.3008896,26.6023583 93.3008896,25.9732096 C93.3008896,25.3244 93.7924046,25 94.7754496,25 C94.9327367,25 95.2178155,25.0196606 95.6306944,25.0589824 C96.2598431,25.1179651 96.5842431,25.147456 96.603904,25.147456 C96.780852,25.147456 97.0364399,25.1277954 97.3706752,25.0884736 C97.7049104,25.0491518 97.9604983,25.0294912 98.1374464,25.0294912 C98.6879515,25.0294912 98.9632,25.4227033 98.9632,26.2091392 L98.9632,26.5335424 C98.9435391,26.5925251 98.9238785,27.1135311 98.9042176,28.096576 C98.9042176,28.2145414 98.8747267,28.9714746 98.815744,30.3673984 C98.7764222,31.3504433 98.7567616,32.0975462 98.7567616,32.6087296 L98.7567616,35.4988672 L98.815744,40.4238976 C98.8354049,41.7215169 98.8943867,42.5276016 98.9926912,42.842176 C99.0909957,43.1567504 99.3269229,43.3140352 99.70048,43.3140352 C99.9560716,43.3140352 100.152678,43.2943746 100.290304,43.2550528 C100.604878,43.215731 100.821145,43.1960704 100.93911,43.1960704 C101.666564,43.1960704 102.030285,43.5204704 102.030285,44.16928 C102.030285,44.8377505 101.587921,45.1719808 100.703181,45.1719808 C100.506572,45.1719808 100.206748,45.147405 99.8036992,45.0982528 C99.4006507,45.0491006 99.1008265,45.0245248 98.9042176,45.0245248 C98.8452349,45.0245248 98.6191379,45.0441854 98.22592,45.0835072 C97.9899892,45.1424899 97.7835528,45.1719808 97.6066048,45.1719808 C97.0757605,45.1719808 96.8103424,44.8180899 96.8103424,44.1102976 L96.8103424,43.9628416 L96.8398336,43.4614912 C95.797806,44.857415 94.2839395,45.5553664 92.2981888,45.5553664 C90.2927771,45.5553664 88.6806077,44.8279241 87.461632,43.3730176 C86.2426563,41.9181111 85.6331776,40.0110326 85.6331776,37.6517248 C85.6331776,35.2727561 86.232826,33.3705927 87.4321408,31.9451776 C88.6314556,30.5197625 90.2337947,29.8070656 92.2392064,29.8070656 Z M96.4269568,40.2174592 C96.5056004,39.5686496 96.5449216,38.7330739 96.5449216,37.7107072 C96.5449216,36.393427 96.4957701,35.4988696 96.3974656,35.027008 C96.2205175,34.0439631 95.7978145,33.2771996 95.129344,32.7266944 C94.342908,32.0778848 93.4385203,31.7534848 92.4161536,31.7534848 C91.0398907,31.7534848 89.9634726,32.2744908 89.1868672,33.3165184 C88.4102617,34.358546 88.0219648,35.7839398 88.0219648,37.5927424 C88.0219648,39.4605277 88.4250071,40.9301578 89.231104,42.0016768 C90.0372008,43.0731958 91.1381946,43.6089472 92.5341184,43.6089472 C93.5958069,43.6089472 94.480534,43.2992927 95.1883264,42.6799744 C95.8961187,42.0606561 96.3089914,41.2398259 96.4269568,40.2174592 Z M108.478016,33.1395712 L111.869504,43.1075968 L115.46743,33.2870272 C115.565735,33.0117746 115.614886,32.795508 115.614886,32.6382208 C115.614886,32.3039855 115.388789,32.1368704 114.936589,32.1368704 C114.700658,32.1368704 114.513882,32.156531 114.376256,32.1958528 C114.061682,32.2351746 113.855245,32.2548352 113.756941,32.2548352 C113.108131,32.2548352 112.783731,31.9402655 112.783731,31.3111168 C112.783731,30.6426463 113.206434,30.308416 114.051853,30.308416 C114.169818,30.308416 114.366424,30.3280766 114.641677,30.3673984 L115.70336,30.5148544 C115.978613,30.5541762 116.273522,30.5738368 116.588096,30.5738368 C116.922331,30.5738368 117.413846,30.5345156 118.062656,30.455872 C118.711466,30.3772284 119.202981,30.3379072 119.537216,30.3379072 C120.382635,30.3379072 120.805338,30.6623072 120.805338,31.3111168 C120.805338,31.9402655 120.480938,32.2548352 119.832128,32.2548352 C119.635519,32.2548352 119.488064,32.2351746 119.38976,32.1958528 C119.134168,32.1368701 118.957223,32.1073792 118.858918,32.1073792 C118.485361,32.1073792 118.10198,32.6087246 117.708762,33.6114304 L113.697958,43.6384384 C112.813218,45.8601199 111.977642,47.4722894 111.191206,48.4749952 C109.854265,50.1854934 108.183114,51.0407296 106.177702,51.0407296 C104.978388,51.0407296 103.970782,50.7359902 103.154854,50.1265024 C102.338927,49.5170146 101.93097,48.7797419 101.93097,47.9146624 C101.93097,47.3051746 102.107915,46.8087443 102.461811,46.4253568 C102.815707,46.0419693 103.277731,45.8502784 103.847898,45.8502784 C104.300098,45.8502784 104.67365,45.9829875 104.968563,46.2484096 C105.263477,46.5138317 105.410931,46.8431468 105.410931,47.2363648 C105.410931,47.8655135 105.125852,48.2685559 104.555686,48.445504 C104.8506,48.8780438 105.410927,49.0943104 106.236685,49.0943104 C107.278712,49.0943104 108.217506,48.7060135 109.053094,47.929408 C109.888683,47.1528025 110.30647,46.2828208 110.30647,45.3194368 C110.30647,44.8279143 110.041052,43.9136963 109.510208,42.5767552 L106.266176,34.3782016 L105.912282,33.4344832 C105.578046,32.5497428 105.194665,32.1073792 104.762125,32.1073792 C104.644159,32.1073792 104.432808,32.1368701 104.128064,32.1958528 C103.82332,32.2548355 103.621799,32.2843264 103.523494,32.2843264 C102.835363,32.2843264 102.491302,31.9697567 102.491302,31.340608 C102.491302,30.6721375 102.943496,30.3379072 103.847898,30.3379072 C104.142811,30.3379072 104.368908,30.3477375 104.526195,30.3673984 L105.705843,30.5148544 L105.941773,30.5148544 C106.079399,30.5345153 106.197363,30.5443456 106.295667,30.5443456 C107.003459,30.5443456 107.760393,30.5050244 108.56649,30.4263808 C109.175977,30.3673981 109.57902,30.3379072 109.775629,30.3379072 C110.601386,30.3379072 111.014259,30.6623072 111.014259,31.3111168 C111.014259,31.9599264 110.640708,32.2843264 109.893594,32.2843264 C109.775628,32.2843264 109.588852,32.2597506 109.333261,32.2105984 C109.077669,32.1614462 108.890893,32.1368704 108.772928,32.1368704 C108.497675,32.1368704 108.360051,32.2744946 108.360051,32.5497472 C108.360051,32.7070344 108.399372,32.9036404 108.478016,33.1395712 Z M138.566848,35.32192 C138.566848,34.5354841 139.058363,34.0832902 140.041408,33.9653248 C139.943103,33.2771934 139.613788,32.7365268 139.053453,32.3433088 C138.493117,31.9500908 137.77059,31.7534848 136.88585,31.7534848 C135.529248,31.7534848 134.438084,32.2941514 133.612326,33.3755008 C132.786569,34.4568502 132.373696,35.8920743 132.373696,37.681216 C132.373696,39.5293404 132.761993,40.9793099 133.538598,42.031168 C134.315204,43.0830261 135.391622,43.6089472 136.767885,43.6089472 C137.632964,43.6089472 138.384982,43.3631897 139.023962,42.8716672 C139.662941,42.3801447 140.100389,41.7018539 140.33632,40.8367744 C140.532929,40.148643 140.650893,39.7554309 140.690214,39.6571264 C140.906484,39.2639084 141.221054,39.0673024 141.633933,39.0673024 C141.968168,39.0673024 142.243416,39.1754357 142.459686,39.3917056 C142.675956,39.6079755 142.78409,39.8832239 142.78409,40.2174592 C142.78409,40.7089817 142.626805,41.2987998 142.31223,41.9869312 C141.997656,42.6750626 141.624104,43.2452201 141.191565,43.6974208 C140.031572,44.9360574 138.527536,45.5553664 136.679411,45.5553664 C134.673999,45.5553664 133.056915,44.8475847 131.828109,43.432 C130.599303,42.0164153 129.984909,40.1584883 129.984909,37.8581632 C129.984909,35.4202118 130.618963,33.4688969 131.887091,32.00416 C133.155219,30.5394231 134.841116,29.8070656 136.944832,29.8070656 C138.517704,29.8070656 139.825134,30.2346837 140.867162,31.0899328 C141.909189,31.9451819 142.430195,33.0314302 142.430195,34.3487104 C142.430195,35.0761636 142.228674,35.675812 141.825626,36.1476736 C141.422577,36.6195352 140.906486,36.8554624 140.277338,36.8554624 C139.785815,36.8554624 139.377858,36.7080079 139.053453,36.4130944 C138.729048,36.1181809 138.566848,35.7544598 138.566848,35.32192 Z M150.146048,32.7266944 L150.175539,41.8984576 C150.1952,42.9011634 150.460618,43.4025088 150.971801,43.4025088 C151.089767,43.4025088 151.335524,43.3533573 151.709081,43.2550528 C151.945012,43.215731 152.102297,43.1960704 152.180941,43.1960704 C152.82975,43.1960704 153.15415,43.5303007 153.15415,44.1987712 C153.15415,44.8475808 152.751108,45.1719808 151.945011,45.1719808 C151.630437,45.1719808 151.129091,45.1326596 150.44096,45.054016 C149.752828,44.9753724 149.221992,44.9360512 148.848435,44.9360512 C148.533861,44.9360512 148.062006,44.9753724 147.432857,45.054016 C146.803709,45.1326596 146.341685,45.1719808 146.046771,45.1719808 L145.899315,45.1719808 C145.073557,45.1719808 144.660685,44.8180899 144.660685,44.1102976 C144.660685,43.5008098 144.994915,43.1960704 145.663385,43.1960704 L145.869824,43.1960704 C145.987789,43.2157313 146.076262,43.2255616 146.135245,43.2255616 C146.626767,43.3042052 146.911846,43.3435264 146.990489,43.3435264 C147.344386,43.3435264 147.565567,43.1911567 147.654041,42.8864128 C147.742516,42.5816689 147.796582,41.7903296 147.816243,40.5123712 L147.845734,38.4479872 L147.934208,33.8768512 L147.904717,28.6274176 C147.885056,28.0375907 147.855565,27.6443786 147.816243,27.4477696 C147.678617,26.9955689 147.403368,26.769472 146.990489,26.769472 C146.931507,26.769472 146.675919,26.8087932 146.223718,26.8874368 C146.007448,26.9267586 145.830503,26.9464192 145.692877,26.9464192 C145.024406,26.9464192 144.690176,26.6318495 144.690176,26.0027008 C144.690176,25.3538912 145.083388,25.0294912 145.869824,25.0294912 C146.086094,25.0294912 146.272869,25.0393215 146.430157,25.0589824 L147.137945,25.147456 C147.45252,25.1867778 147.717938,25.2064384 147.934208,25.2064384 C148.130817,25.2064384 148.425726,25.1720323 148.818944,25.1032192 C149.212162,25.0344061 149.507071,25 149.70368,25 C150.155881,25 150.381977,25.2850787 150.381977,25.8552448 C150.381977,26.0518538 150.372147,26.1993083 150.352486,26.2976128 C150.21486,27.811502 150.146048,29.9545077 150.146048,32.7266944 Z M167.210611,44.316736 L167.210611,43.4025088 C166.168583,44.8377544 164.625226,45.5553664 162.580493,45.5553664 C160.260507,45.5553664 158.648337,44.8377544 157.743936,43.4025088 C157.350718,42.7733601 157.134451,42.0360874 157.095129,41.1906688 C157.075469,40.7777899 157.065638,39.9127234 157.065638,38.5954432 L157.065638,36.1476736 C157.065638,33.4541305 156.78056,32.1073792 156.210393,32.1073792 C156.092428,32.1073792 155.905652,32.131955 155.650061,32.1811072 C155.394469,32.2302594 155.197863,32.2548352 155.060237,32.2548352 C154.372105,32.2548352 154.028045,31.9304352 154.028045,31.2816256 C154.028045,30.6524769 154.450748,30.3379072 155.296166,30.3379072 C155.492775,30.3379072 155.782769,30.3575678 156.166157,30.3968896 C156.549544,30.4362114 156.839538,30.455872 157.036147,30.455872 C157.213095,30.455872 157.517835,30.4263811 157.950374,30.3673984 C158.245288,30.3280766 158.412403,30.308416 158.451725,30.308416 C159.061213,30.308416 159.365952,30.6819675 159.365952,31.4290816 L159.365952,32.0483968 L159.336461,33.9653248 L159.247987,36.1476736 L159.247987,38.0646016 C159.247987,39.7750998 159.385611,41.0038875 159.660864,41.7510016 C160.113065,42.9896382 161.194398,43.6089472 162.904896,43.6089472 C163.750314,43.6089472 164.497417,43.4172563 165.146227,43.0338688 C165.795037,42.6504813 166.247231,42.1442207 166.502822,41.515072 C166.817397,40.748297 166.974681,39.2934123 166.974681,37.1503744 L166.974681,33.6114304 C166.876377,32.6677073 166.620789,32.1958528 166.20791,32.1958528 C165.99164,32.1958528 165.814695,32.2155134 165.677069,32.2548352 L165.323174,32.2548352 C164.635043,32.2548352 164.290982,31.9500958 164.290982,31.340608 C164.290982,30.6524766 164.674364,30.308416 165.441139,30.308416 C165.618087,30.308416 165.88842,30.3280766 166.252147,30.3673984 C166.615874,30.4067202 166.886207,30.4263808 167.063155,30.4263808 C167.220442,30.4263808 167.456369,30.4116353 167.770944,30.382144 C168.085518,30.3526527 168.321445,30.3379072 168.478733,30.3379072 C169.06856,30.3379072 169.363469,30.6524769 169.363469,31.2816256 C169.363469,31.5568782 169.343808,31.7731448 169.304486,31.930432 C169.206182,32.6775461 169.15703,33.7785399 169.15703,35.2334464 L169.15703,39.7750912 C169.15703,40.974406 169.166861,41.6428665 169.186521,41.7804928 C169.284826,42.8225204 169.560074,43.3435264 170.012275,43.3435264 C170.149901,43.3435264 170.346507,43.3189506 170.602099,43.2697984 C170.857691,43.2206462 171.054297,43.1960704 171.191923,43.1960704 C171.860394,43.1960704 172.194624,43.5204704 172.194624,44.16928 C172.194624,44.8377505 171.781751,45.1719808 170.955993,45.1719808 C170.779045,45.1719808 170.523458,45.1523202 170.189222,45.1129984 C169.6977,45.0540157 169.39296,45.0245248 169.274995,45.0245248 C169.216012,45.0245248 169.009576,45.0441854 168.65568,45.0835072 C168.419749,45.1424899 168.213313,45.1719808 168.036365,45.1719808 C167.48586,45.1719808 167.210611,44.8869021 167.210611,44.316736 Z M177.78711,26.2386304 C177.629823,27.870485 177.54135,29.8070544 177.521689,32.0483968 C178.150838,31.2226391 178.789808,30.6426513 179.438617,30.308416 C180.087427,29.9741807 180.903342,29.8070656 181.886387,29.8070656 C183.852477,29.8070656 185.415495,30.4951867 186.575488,31.8714496 C187.735481,33.2477125 188.315469,35.0761486 188.315469,37.3568128 C188.315469,39.8537469 187.701075,41.844383 186.472269,43.3287808 C185.243463,44.8131786 183.587057,45.5553664 181.503001,45.5553664 C179.477929,45.5553664 178.013214,44.7984332 177.108813,43.284544 C177.187456,43.8547101 177.226777,44.1692797 177.226777,44.2282624 C177.226777,44.9360547 176.882717,45.2899456 176.194585,45.2899456 C175.506454,45.2899456 175.162393,44.7984305 175.162393,43.8153856 C175.162393,43.540133 175.172224,43.3336967 175.191885,43.1960704 C175.191885,42.7438697 175.201715,42.262185 175.221376,41.7510016 L175.309849,39.4801792 L175.368832,36.501568 L175.309849,28.6274176 C175.290189,27.8999644 175.216461,27.4084493 175.088665,27.1528576 C174.96087,26.8972659 174.739688,26.769472 174.425113,26.769472 C174.366131,26.769472 174.110543,26.8087932 173.658342,26.8874368 C173.442072,26.9267586 173.255297,26.9464192 173.098009,26.9464192 C172.429539,26.9464192 172.095309,26.6318495 172.095309,26.0027008 C172.095309,25.3538912 172.488521,25.0294912 173.274957,25.0294912 C173.510887,25.0294912 173.707493,25.0393215 173.864781,25.0589824 L174.572569,25.147456 C174.887144,25.1867778 175.142732,25.2064384 175.339341,25.2064384 C175.555611,25.2064384 175.86035,25.1720323 176.253568,25.1032192 C176.646786,25.0344061 176.941695,25 177.138304,25 C177.570844,25 177.78711,25.2752484 177.78711,25.8257536 L177.78711,26.2386304 Z M177.757619,34.7910784 C177.619993,35.4202271 177.551181,36.3049543 177.551181,37.4452864 C177.551181,39.3917153 177.708465,40.7286364 178.02304,41.4560896 C178.632528,42.8913352 179.792503,43.6089472 181.503001,43.6089472 C182.859603,43.6089472 183.936021,43.0731958 184.732288,42.0016768 C185.528554,40.9301578 185.926681,39.4900186 185.926681,37.681216 C185.926681,35.8330916 185.548215,34.3831221 184.79127,33.331264 C184.034326,32.2794059 182.997229,31.7534848 181.679949,31.7534848 C180.755886,31.7534848 179.920311,32.0434787 179.173197,32.6234752 C178.426083,33.2034717 177.954228,33.9259989 177.757619,34.7910784 Z" id="body-club" fill="#162141"></path>
            </g>
        </g>
    </g>
</svg>